<svg xmlns="http://www.w3.org/2000/svg" xmlns:xlink="http://www.w3.org/1999/xlink" width="500" zoomAndPan="magnify" viewBox="0 0 375 374.999991" height="500" preserveAspectRatio="xMidYMid meet" version="1.0"><defs><clipPath id="14a0f19595"><path d="M 224 97.894531 L 267 97.894531 L 267 140 L 224 140 Z M 224 97.894531 " clip-rule="nonzero"/></clipPath></defs><path fill="#99cc33" d="M 137.855469 218.292969 C 137.855469 218.292969 96.375 192.507812 83.082031 201.636719 C 69.789062 210.765625 94.453125 224.375 94.453125 224.375 C 94.453125 224.375 87.246094 227.742188 86.769531 236.707031 C 85.746094 255.710938 134.773438 220.105469 137.855469 218.292969 Z M 137.855469 218.292969 " fill-opacity="1" fill-rule="evenodd"/><path fill="#ff9933" d="M 188.953125 261.707031 L 188.953125 261.710938 C 188.890625 262.941406 189.851562 263.984375 191.085938 264.027344 L 204.300781 264.492188 L 215.097656 276.082031 C 215.9375 276.984375 217.410156 277.078125 218.28125 276.214844 C 219.148438 275.34375 219.246094 273.964844 218.40625 273.066406 L 210.628906 264.714844 L 220.496094 265.066406 C 221.722656 265.109375 222.777344 264.140625 222.832031 262.910156 C 222.890625 261.679688 221.929688 260.640625 220.699219 260.597656 L 206.859375 260.101562 L 206.859375 228.417969 C 206.859375 227.191406 205.855469 226.179688 204.621094 226.179688 C 203.390625 226.179688 202.382812 227.191406 202.382812 228.417969 L 202.382812 259.9375 L 202.375 259.945312 L 191.289062 259.554688 C 190.0625 259.507812 189.007812 260.480469 188.953125 261.707031 Z M 188.953125 261.707031 " fill-opacity="1" fill-rule="evenodd"/><path fill="#ff9933" d="M 209.113281 248.28125 C 209.070312 249.347656 209.894531 250.25 210.960938 250.285156 L 222.390625 250.691406 L 231.722656 260.707031 C 232.449219 261.492188 233.722656 261.574219 234.476562 260.824219 C 235.226562 260.070312 235.308594 258.882812 234.585938 258.105469 L 227.863281 250.886719 L 236.390625 251.1875 C 237.453125 251.226562 238.363281 250.386719 238.414062 249.320312 C 238.460938 248.253906 237.636719 247.355469 236.570312 247.316406 L 224.597656 246.894531 L 224.597656 219.496094 C 224.597656 218.429688 223.726562 217.566406 222.667969 217.566406 C 221.601562 217.566406 220.730469 218.4375 220.730469 219.496094 L 220.730469 246.75 L 220.722656 246.757812 L 211.140625 246.417969 C 210.074219 246.378906 209.164062 247.21875 209.113281 248.28125 Z M 209.113281 248.28125 " fill-opacity="1" fill-rule="evenodd"/><path fill="#ffd541" d="M 263.976562 213.40625 C 222.667969 244.820312 141.058594 217.410156 141.058594 217.410156 C 141.058594 217.410156 178.296875 149.75 212.726562 134.539062 C 285.40625 102.425781 305.289062 181.996094 263.976562 213.40625 Z M 263.976562 213.40625 " fill-opacity="1" fill-rule="evenodd"/><path fill="#ff9933" d="M 212.285156 179.394531 C 195.128906 192.394531 192.777344 202.164062 176.460938 201.621094 C 160.140625 201.070312 202.890625 218.496094 224.410156 215.144531 C 260.167969 209.566406 236.625 160.957031 212.285156 179.394531 Z M 212.285156 179.394531 " fill-opacity="1" fill-rule="evenodd"/><path fill="#ffffff" d="M 268.339844 155.351562 C 268.339844 156.164062 268.261719 156.96875 268.101562 157.765625 C 267.941406 158.5625 267.707031 159.339844 267.398438 160.089844 C 267.085938 160.839844 266.703125 161.554688 266.253906 162.230469 C 265.800781 162.90625 265.289062 163.53125 264.714844 164.105469 C 264.136719 164.679688 263.511719 165.195312 262.835938 165.644531 C 262.160156 166.097656 261.449219 166.476562 260.695312 166.789062 C 259.945312 167.101562 259.171875 167.335938 258.375 167.492188 C 257.578125 167.652344 256.769531 167.730469 255.957031 167.730469 C 255.144531 167.730469 254.339844 167.652344 253.542969 167.492188 C 252.746094 167.335938 251.972656 167.101562 251.21875 166.789062 C 250.46875 166.476562 249.753906 166.097656 249.078125 165.644531 C 248.402344 165.195312 247.777344 164.679688 247.203125 164.105469 C 246.628906 163.53125 246.113281 162.90625 245.664062 162.230469 C 245.210938 161.554688 244.832031 160.839844 244.519531 160.089844 C 244.207031 159.339844 243.972656 158.5625 243.8125 157.765625 C 243.65625 156.96875 243.578125 156.164062 243.578125 155.351562 C 243.578125 154.539062 243.65625 153.734375 243.8125 152.9375 C 243.972656 152.136719 244.207031 151.363281 244.519531 150.613281 C 244.832031 149.863281 245.210938 149.148438 245.664062 148.472656 C 246.113281 147.796875 246.628906 147.171875 247.203125 146.597656 C 247.777344 146.023438 248.402344 145.507812 249.078125 145.058594 C 249.753906 144.605469 250.46875 144.222656 251.21875 143.914062 C 251.972656 143.601562 252.746094 143.367188 253.542969 143.207031 C 254.339844 143.050781 255.144531 142.972656 255.957031 142.972656 C 256.769531 142.972656 257.578125 143.050781 258.375 143.207031 C 259.171875 143.367188 259.945312 143.601562 260.695312 143.914062 C 261.449219 144.222656 262.160156 144.605469 262.835938 145.058594 C 263.511719 145.507812 264.136719 146.023438 264.714844 146.597656 C 265.289062 147.171875 265.800781 147.796875 266.253906 148.472656 C 266.703125 149.148438 267.085938 149.863281 267.398438 150.613281 C 267.707031 151.363281 267.941406 152.136719 268.101562 152.9375 C 268.261719 153.734375 268.339844 154.539062 268.339844 155.351562 Z M 268.339844 155.351562 " fill-opacity="1" fill-rule="nonzero"/><path fill="#000000" d="M 261.988281 155.351562 C 261.988281 155.746094 261.949219 156.140625 261.871094 156.527344 C 261.792969 156.914062 261.679688 157.292969 261.527344 157.660156 C 261.378906 158.023438 261.191406 158.371094 260.972656 158.699219 C 260.75 159.03125 260.5 159.335938 260.222656 159.613281 C 259.941406 159.894531 259.636719 160.144531 259.308594 160.363281 C 258.980469 160.585938 258.632812 160.769531 258.265625 160.921875 C 257.898438 161.074219 257.523438 161.1875 257.132812 161.265625 C 256.746094 161.34375 256.355469 161.378906 255.957031 161.378906 C 255.5625 161.378906 255.171875 161.34375 254.78125 161.265625 C 254.394531 161.1875 254.015625 161.074219 253.652344 160.921875 C 253.285156 160.769531 252.9375 160.585938 252.609375 160.363281 C 252.277344 160.144531 251.972656 159.894531 251.695312 159.613281 C 251.414062 159.335938 251.164062 159.03125 250.945312 158.699219 C 250.722656 158.371094 250.539062 158.023438 250.386719 157.660156 C 250.234375 157.292969 250.121094 156.914062 250.042969 156.527344 C 249.96875 156.140625 249.929688 155.746094 249.929688 155.351562 C 249.929688 154.957031 249.96875 154.5625 250.042969 154.175781 C 250.121094 153.785156 250.234375 153.410156 250.386719 153.042969 C 250.539062 152.679688 250.722656 152.332031 250.945312 152 C 251.164062 151.671875 251.414062 151.367188 251.695312 151.089844 C 251.972656 150.808594 252.277344 150.558594 252.609375 150.339844 C 252.9375 150.117188 253.285156 149.933594 253.652344 149.78125 C 254.015625 149.628906 254.394531 149.515625 254.78125 149.4375 C 255.171875 149.359375 255.5625 149.320312 255.957031 149.320312 C 256.355469 149.320312 256.746094 149.359375 257.132812 149.4375 C 257.523438 149.515625 257.898438 149.628906 258.265625 149.78125 C 258.632812 149.933594 258.980469 150.117188 259.308594 150.339844 C 259.636719 150.558594 259.941406 150.808594 260.222656 151.089844 C 260.5 151.367188 260.75 151.671875 260.972656 152 C 261.191406 152.332031 261.378906 152.679688 261.527344 153.042969 C 261.679688 153.410156 261.792969 153.785156 261.871094 154.175781 C 261.949219 154.5625 261.988281 154.957031 261.988281 155.351562 Z M 261.988281 155.351562 " fill-opacity="1" fill-rule="nonzero"/><path fill="#ffffff" d="M 254.863281 153.007812 C 254.863281 153.191406 254.828125 153.363281 254.761719 153.53125 C 254.691406 153.699219 254.59375 153.847656 254.464844 153.972656 C 254.335938 154.101562 254.1875 154.199219 254.019531 154.269531 C 253.855469 154.339844 253.679688 154.375 253.5 154.375 C 253.316406 154.375 253.144531 154.339844 252.976562 154.269531 C 252.808594 154.199219 252.660156 154.101562 252.53125 153.972656 C 252.40625 153.847656 252.304688 153.699219 252.238281 153.53125 C 252.167969 153.363281 252.132812 153.191406 252.132812 153.007812 C 252.132812 152.828125 252.167969 152.652344 252.238281 152.484375 C 252.304688 152.320312 252.40625 152.171875 252.53125 152.042969 C 252.660156 151.914062 252.808594 151.816406 252.976562 151.746094 C 253.144531 151.675781 253.316406 151.644531 253.5 151.644531 C 253.679688 151.644531 253.855469 151.675781 254.019531 151.746094 C 254.1875 151.816406 254.335938 151.914062 254.464844 152.042969 C 254.59375 152.171875 254.691406 152.320312 254.761719 152.484375 C 254.828125 152.652344 254.863281 152.828125 254.863281 153.007812 Z M 254.863281 153.007812 " fill-opacity="1" fill-rule="nonzero"/><path fill="#ffb260" d="M 281.242188 150.472656 L 303.859375 141.90625 L 284.007812 158.960938 Z M 281.242188 150.472656 " fill-opacity="1" fill-rule="evenodd"/><path fill="#ff9933" d="M 284.007812 158.960938 L 298.25 162.886719 L 285.019531 165.476562 Z M 284.007812 158.960938 " fill-opacity="1" fill-rule="evenodd"/><g clip-path="url(#14a0f19595)"><path fill="#ffd541" d="M 266.113281 110.929688 C 266.113281 110.929688 258.21875 111.492188 258.21875 122.589844 C 258.21875 133.683594 239.980469 139.695312 239.980469 139.695312 C 239.980469 139.695312 236.96875 115.628906 224.75 111.492188 C 224.75 111.492188 237.0625 112.058594 241.292969 123.71875 C 241.292969 123.71875 250.410156 109.804688 245.335938 97.957031 C 245.335938 97.957031 255.871094 109.050781 253.046875 117.792969 C 256.125 112.273438 261.789062 109.847656 266.113281 110.929688 Z M 266.113281 110.929688 " fill-opacity="1" fill-rule="evenodd"/></g></svg>