<svg xmlns="http://www.w3.org/2000/svg" xmlns:xlink="http://www.w3.org/1999/xlink" width="500" zoomAndPan="magnify" viewBox="0 0 375 374.999991" height="500" preserveAspectRatio="xMidYMid meet" version="1.0"><defs><clipPath id="d82d1dc770"><path d="M 93 182 L 148 182 L 148 237.1875 L 93 237.1875 Z M 93 182 " clip-rule="nonzero"/></clipPath><clipPath id="9a45ab949a"><path d="M 223 182 L 278 182 L 278 237.1875 L 223 237.1875 Z M 223 182 " clip-rule="nonzero"/></clipPath><clipPath id="6e783b9c36"><path d="M 38 139 L 337.5 139 L 337.5 218 L 38 218 Z M 38 139 " clip-rule="nonzero"/></clipPath></defs><path fill="#db0000" d="M 334.394531 208.964844 C 332.902344 211.664062 330.574219 213.402344 327.828125 214.601562 C 325.078125 215.800781 321.914062 216.519531 316.0625 216.398438 L 275.398438 216.398438 C 275.933594 214.300781 276.175781 212.144531 276.175781 209.925781 C 276.175781 195.539062 264.53125 183.851562 250.199219 183.851562 C 235.867188 183.851562 224.222656 195.539062 224.222656 209.925781 C 224.222656 212.144531 224.523438 214.359375 225 216.398438 L 145.402344 216.398438 C 145.941406 214.300781 146.179688 212.144531 146.179688 209.925781 C 146.179688 195.539062 134.535156 183.851562 120.203125 183.851562 C 105.871094 183.851562 94.226562 195.539062 94.226562 209.925781 C 94.226562 212.144531 94.527344 214.359375 95.003906 216.398438 L 48.367188 216.398438 C 44.546875 216.398438 41.738281 215.679688 40.1875 213.28125 C 38.695312 210.824219 38.457031 206.6875 41.382812 200.8125 C 44.246094 194.941406 50.277344 187.328125 59.414062 180.675781 C 68.550781 174.019531 80.851562 168.328125 92.617188 165.570312 C 104.320312 162.8125 115.484375 162.992188 125.398438 163.351562 C 135.308594 163.710938 143.910156 164.25 151.492188 162.992188 C 159.078125 161.734375 165.644531 158.617188 175.199219 154.300781 C 184.753906 150.042969 197.414062 144.589844 209.296875 141.953125 C 221.179688 139.316406 232.34375 139.617188 243.390625 142.074219 C 254.378906 144.53125 265.246094 149.265625 275.515625 154.480469 C 285.789062 159.695312 295.402344 165.390625 304.898438 171.265625 C 314.332031 177.136719 323.585938 183.25 328.960938 187.867188 C 334.277344 192.542969 335.769531 195.71875 336.1875 199.136719 C 336.484375 202.613281 335.886719 206.269531 334.394531 208.964844 Z M 334.394531 208.964844 " fill-opacity="1" fill-rule="nonzero"/><path fill="#56565b" d="M 276.234375 209.925781 C 276.234375 212.144531 275.933594 214.359375 275.457031 216.398438 C 272.589844 227.667969 262.378906 236 250.257812 236 C 238.136719 236 227.925781 227.667969 225.058594 216.398438 C 224.523438 214.300781 224.285156 212.144531 224.285156 209.925781 C 224.285156 195.539062 235.925781 183.851562 250.257812 183.851562 C 264.589844 183.851562 276.234375 195.539062 276.234375 209.925781 Z M 276.234375 209.925781 " fill-opacity="1" fill-rule="nonzero"/><path fill="#56565b" d="M 146.238281 209.925781 C 146.238281 212.144531 145.941406 214.359375 145.460938 216.398438 C 142.59375 227.667969 132.382812 236 120.261719 236 C 108.140625 236 97.929688 227.667969 95.0625 216.398438 C 94.527344 214.300781 94.289062 212.144531 94.289062 209.925781 C 94.289062 195.539062 105.929688 183.851562 120.261719 183.851562 C 134.59375 183.851562 146.238281 195.539062 146.238281 209.925781 Z M 146.238281 209.925781 " fill-opacity="1" fill-rule="nonzero"/><path stroke-linecap="round" transform="matrix(0.597134, 0, 0, 0.599404, 38.097134, 139.0758)" fill="none" stroke-linejoin="round" d="M 95.398002 128.999161 L 95.398002 128.999161 " stroke="#0000ff" stroke-width="1.674" stroke-opacity="1" stroke-miterlimit="4"/><path fill="#e2e2e2" d="M 258.859375 209.925781 C 258.859375 210.496094 258.800781 211.0625 258.691406 211.621094 C 258.582031 212.179688 258.414062 212.722656 258.199219 213.25 C 257.980469 213.777344 257.714844 214.28125 257.398438 214.753906 C 257.082031 215.230469 256.722656 215.667969 256.320312 216.070312 C 255.917969 216.476562 255.480469 216.835938 255.007812 217.152344 C 254.535156 217.46875 254.039062 217.738281 253.511719 217.957031 C 252.988281 218.171875 252.445312 218.339844 251.886719 218.449219 C 251.332031 218.5625 250.765625 218.617188 250.199219 218.617188 C 249.628906 218.617188 249.066406 218.5625 248.511719 218.449219 C 247.953125 218.339844 247.410156 218.171875 246.886719 217.957031 C 246.359375 217.738281 245.863281 217.46875 245.386719 217.152344 C 244.914062 216.835938 244.480469 216.476562 244.078125 216.070312 C 243.675781 215.667969 243.316406 215.230469 243 214.753906 C 242.683594 214.28125 242.417969 213.777344 242.199219 213.25 C 241.980469 212.722656 241.816406 212.179688 241.707031 211.621094 C 241.597656 211.0625 241.539062 210.496094 241.539062 209.925781 C 241.539062 209.355469 241.597656 208.789062 241.707031 208.230469 C 241.816406 207.671875 241.980469 207.125 242.199219 206.597656 C 242.417969 206.070312 242.683594 205.570312 243 205.097656 C 243.316406 204.621094 243.675781 204.183594 244.078125 203.78125 C 244.480469 203.375 244.914062 203.015625 245.386719 202.699219 C 245.863281 202.382812 246.359375 202.113281 246.886719 201.894531 C 247.410156 201.675781 247.953125 201.511719 248.511719 201.402344 C 249.066406 201.289062 249.628906 201.234375 250.199219 201.234375 C 250.765625 201.234375 251.332031 201.289062 251.886719 201.402344 C 252.445312 201.511719 252.988281 201.675781 253.511719 201.894531 C 254.039062 202.113281 254.535156 202.382812 255.007812 202.699219 C 255.480469 203.015625 255.917969 203.375 256.320312 203.78125 C 256.722656 204.183594 257.082031 204.621094 257.398438 205.097656 C 257.714844 205.570312 257.980469 206.070312 258.199219 206.597656 C 258.414062 207.125 258.582031 207.671875 258.691406 208.230469 C 258.800781 208.789062 258.859375 209.355469 258.859375 209.925781 Z M 258.859375 209.925781 " fill-opacity="1" fill-rule="nonzero"/><path fill="#e2e2e2" d="M 128.863281 209.925781 C 128.863281 210.496094 128.804688 211.0625 128.695312 211.621094 C 128.585938 212.179688 128.421875 212.722656 128.203125 213.25 C 127.984375 213.777344 127.71875 214.28125 127.402344 214.753906 C 127.085938 215.230469 126.726562 215.667969 126.324219 216.070312 C 125.921875 216.476562 125.484375 216.835938 125.011719 217.152344 C 124.539062 217.46875 124.042969 217.738281 123.515625 217.957031 C 122.992188 218.171875 122.449219 218.339844 121.890625 218.449219 C 121.335938 218.5625 120.773438 218.617188 120.203125 218.617188 C 119.632812 218.617188 119.070312 218.5625 118.515625 218.449219 C 117.957031 218.339844 117.414062 218.171875 116.890625 217.957031 C 116.363281 217.738281 115.867188 217.46875 115.394531 217.152344 C 114.921875 216.835938 114.484375 216.476562 114.082031 216.070312 C 113.679688 215.667969 113.320312 215.230469 113.003906 214.753906 C 112.6875 214.28125 112.421875 213.777344 112.203125 213.25 C 111.984375 212.722656 111.820312 212.179688 111.710938 211.621094 C 111.601562 211.0625 111.542969 210.496094 111.542969 209.925781 C 111.542969 209.355469 111.601562 208.789062 111.710938 208.230469 C 111.820312 207.671875 111.984375 207.125 112.203125 206.597656 C 112.421875 206.070312 112.6875 205.570312 113.003906 205.097656 C 113.320312 204.621094 113.679688 204.183594 114.082031 203.78125 C 114.484375 203.375 114.921875 203.015625 115.394531 202.699219 C 115.867188 202.382812 116.363281 202.113281 116.890625 201.894531 C 117.414062 201.675781 117.957031 201.511719 118.515625 201.402344 C 119.070312 201.289062 119.632812 201.234375 120.203125 201.234375 C 120.773438 201.234375 121.335938 201.289062 121.890625 201.402344 C 122.449219 201.511719 122.992188 201.675781 123.515625 201.894531 C 124.042969 202.113281 124.539062 202.382812 125.011719 202.699219 C 125.484375 203.015625 125.921875 203.375 126.324219 203.78125 C 126.726562 204.183594 127.085938 204.621094 127.402344 205.097656 C 127.71875 205.570312 127.984375 206.070312 128.203125 206.597656 C 128.421875 207.125 128.585938 207.671875 128.695312 208.230469 C 128.804688 208.789062 128.863281 209.355469 128.863281 209.925781 Z M 128.863281 209.925781 " fill-opacity="1" fill-rule="nonzero"/><path fill="#ffffff" d="M 310.570312 192.542969 C 310.570312 193.492188 310.476562 194.429688 310.292969 195.359375 C 310.109375 196.292969 309.835938 197.195312 309.472656 198.070312 C 309.113281 198.945312 308.667969 199.78125 308.144531 200.566406 C 307.617188 201.355469 307.023438 202.085938 306.355469 202.757812 C 305.6875 203.429688 304.960938 204.027344 304.171875 204.554688 C 303.386719 205.082031 302.558594 205.527344 301.683594 205.890625 C 300.8125 206.25 299.914062 206.527344 298.984375 206.710938 C 298.058594 206.894531 297.125 206.988281 296.179688 206.988281 C 295.234375 206.988281 294.296875 206.894531 293.371094 206.710938 C 292.445312 206.527344 291.542969 206.25 290.671875 205.890625 C 289.796875 205.527344 288.96875 205.082031 288.183594 204.554688 C 287.398438 204.027344 286.671875 203.429688 286.003906 202.757812 C 285.335938 202.085938 284.738281 201.355469 284.210938 200.566406 C 283.6875 199.78125 283.246094 198.945312 282.882812 198.070312 C 282.519531 197.195312 282.25 196.292969 282.0625 195.359375 C 281.878906 194.429688 281.789062 193.492188 281.789062 192.542969 C 281.789062 191.59375 281.878906 190.65625 282.0625 189.722656 C 282.25 188.792969 282.519531 187.890625 282.882812 187.015625 C 283.246094 186.136719 283.6875 185.304688 284.210938 184.515625 C 284.738281 183.726562 285.335938 183 286.003906 182.328125 C 286.671875 181.65625 287.398438 181.058594 288.183594 180.53125 C 288.96875 180.003906 289.796875 179.558594 290.671875 179.195312 C 291.542969 178.832031 292.445312 178.558594 293.371094 178.375 C 294.296875 178.191406 295.234375 178.097656 296.179688 178.097656 C 297.125 178.097656 298.058594 178.191406 298.984375 178.375 C 299.914062 178.558594 300.8125 178.832031 301.683594 179.195312 C 302.558594 179.558594 303.386719 180.003906 304.171875 180.53125 C 304.960938 181.058594 305.6875 181.65625 306.355469 182.328125 C 307.023438 183 307.617188 183.726562 308.144531 184.515625 C 308.667969 185.304688 309.113281 186.136719 309.472656 187.015625 C 309.835938 187.890625 310.109375 188.792969 310.292969 189.722656 C 310.476562 190.65625 310.570312 191.59375 310.570312 192.542969 Z M 310.570312 192.542969 " fill-opacity="1" fill-rule="nonzero"/><path fill="#000000" d="M 292.835938 185.710938 L 294.804688 184.511719 L 298.207031 184.511719 L 298.207031 201.953125 L 294.804688 201.953125 L 294.804688 188.585938 L 292.835938 189.664062 L 290.921875 190.683594 L 289.667969 187.507812 Z M 292.835938 185.710938 " fill-opacity="1" fill-rule="nonzero"/><path fill="#ffe040" d="M 81.925781 178.578125 C 78.761719 179.535156 73.566406 181.332031 69.386719 183.851562 C 65.207031 186.367188 61.921875 189.546875 59.414062 192.363281 C 56.90625 195.179688 55.175781 197.699219 54.28125 199.4375 C 53.382812 201.113281 53.382812 202.011719 54.816406 202.613281 C 56.191406 203.273438 58.996094 203.691406 62.042969 203.871094 C 65.085938 204.050781 68.492188 203.929688 70.761719 202.792969 C 73.03125 201.652344 74.222656 199.554688 76.550781 195.839844 C 78.882812 192.183594 82.285156 186.96875 84.316406 183.671875 C 86.34375 180.375 86.882812 178.9375 86.585938 178.277344 C 86.34375 177.617188 85.152344 177.617188 81.925781 178.578125 Z M 81.925781 178.578125 " fill-opacity="1" fill-rule="nonzero"/><path fill="#c6eaff" d="M 229.539062 149.746094 L 229.539062 171.984375 L 167.136719 171.984375 C 165.046875 171.984375 164.449219 169.164062 166.363281 168.265625 C 190.84375 157.296875 205.535156 153.640625 215.445312 151.601562 C 221.65625 150.40625 225.957031 149.804688 229.539062 149.746094 Z M 229.539062 149.746094 " fill-opacity="1" fill-rule="nonzero"/><path fill="#c6eaff" d="M 280.890625 171.984375 L 229.539062 171.984375 L 229.539062 149.746094 C 232.285156 149.683594 234.613281 149.925781 237.0625 150.40625 C 242.792969 151.484375 249.125 153.882812 257.664062 157.238281 C 264.589844 159.996094 272.890625 163.410156 281.847656 168.328125 C 283.578125 169.347656 282.921875 171.984375 280.890625 171.984375 Z M 280.890625 171.984375 " fill-opacity="1" fill-rule="nonzero"/><path fill="#ffffff" d="M 183.378906 191.882812 L 193.710938 191.882812 L 196.933594 185.289062 L 186.664062 185.289062 Z M 183.378906 191.882812 " fill-opacity="1" fill-rule="nonzero"/><path fill="#ffffff" d="M 162.777344 191.882812 L 173.109375 191.882812 L 176.332031 185.289062 L 166.0625 185.289062 Z M 162.777344 191.882812 " fill-opacity="1" fill-rule="nonzero"/><path fill="#ffffff" d="M 159.554688 198.535156 L 169.882812 198.535156 L 166.601562 205.128906 L 156.328125 205.128906 Z M 159.554688 198.535156 " fill-opacity="1" fill-rule="nonzero"/><path fill="#ffffff" d="M 211.085938 198.535156 L 200.757812 198.535156 L 197.53125 205.128906 L 207.863281 205.128906 Z M 211.085938 198.535156 " fill-opacity="1" fill-rule="nonzero"/><path fill="#ffffff" d="M 180.15625 198.535156 L 190.484375 198.535156 L 187.203125 205.128906 L 176.929688 205.128906 Z M 180.15625 198.535156 " fill-opacity="1" fill-rule="nonzero"/><path fill="#ffffff" d="M 204.039062 191.882812 L 214.3125 191.882812 L 217.59375 185.289062 L 207.265625 185.289062 Z M 204.039062 191.882812 " fill-opacity="1" fill-rule="nonzero"/><path fill="#ffffff" d="M 169.882812 198.535156 L 180.15625 198.535156 L 183.378906 191.882812 L 173.109375 191.882812 Z M 169.882812 198.535156 " fill-opacity="1" fill-rule="nonzero"/><path fill="#ffffff" d="M 190.484375 198.535156 L 200.757812 198.535156 L 204.039062 191.882812 L 193.710938 191.882812 Z M 190.484375 198.535156 " fill-opacity="1" fill-rule="nonzero"/><path fill="#666668" d="M 100.078125 220.296875 C 99.363281 219.457031 98.585938 218.316406 97.988281 216.699219 C 97.390625 215.082031 96.914062 212.980469 97.035156 211.0625 C 97.152344 209.144531 97.808594 207.347656 98.585938 206.628906 C 99.363281 205.910156 100.199219 206.328125 100.558594 206.988281 C 100.914062 207.648438 100.796875 208.667969 100.675781 210.046875 C 100.558594 211.484375 100.496094 213.28125 101.09375 214.960938 C 101.691406 216.640625 103.003906 218.195312 103.601562 219.335938 C 104.199219 220.414062 104.140625 221.074219 103.78125 221.433594 C 103.421875 221.792969 102.828125 221.914062 102.167969 221.734375 C 101.511719 221.554688 100.796875 221.074219 100.078125 220.296875 Z M 100.078125 220.296875 " fill-opacity="1" fill-rule="nonzero"/><path fill="#666668" d="M 108.199219 224.191406 C 108.199219 223.351562 107.484375 222.632812 106.648438 222.632812 C 105.8125 222.632812 105.09375 223.351562 105.09375 224.191406 C 105.09375 225.03125 105.8125 225.75 106.648438 225.75 C 107.484375 225.75 108.199219 225.089844 108.199219 224.191406 Z M 108.199219 224.191406 " fill-opacity="1" fill-rule="nonzero"/><path fill="#666668" d="M 238.195312 224.191406 C 238.195312 223.351562 237.480469 222.632812 236.644531 222.632812 C 235.808594 222.632812 235.089844 223.351562 235.089844 224.191406 C 235.089844 225.03125 235.808594 225.75 236.644531 225.75 C 237.480469 225.808594 238.195312 225.089844 238.195312 224.191406 Z M 238.195312 224.191406 " fill-opacity="1" fill-rule="nonzero"/><path fill="#666668" d="M 230.074219 220.296875 C 229.359375 219.457031 228.582031 218.316406 227.984375 216.699219 C 227.386719 215.082031 226.910156 212.980469 227.03125 211.0625 C 227.148438 209.144531 227.804688 207.347656 228.582031 206.628906 C 229.359375 205.910156 230.195312 206.328125 230.554688 206.988281 C 230.910156 207.648438 230.792969 208.667969 230.671875 210.046875 C 230.554688 211.484375 230.492188 213.28125 231.089844 214.960938 C 231.6875 216.640625 233 218.195312 233.597656 219.335938 C 234.195312 220.414062 234.136719 221.074219 233.777344 221.433594 C 233.417969 221.792969 232.824219 221.914062 232.164062 221.734375 C 231.507812 221.554688 230.792969 221.074219 230.074219 220.296875 Z M 230.074219 220.296875 " fill-opacity="1" fill-rule="nonzero"/><path fill="#ffffff" d="M 185.707031 164.3125 C 189.050781 163.050781 195.082031 161.074219 198.785156 160.292969 C 202.488281 159.515625 203.863281 159.996094 204.457031 160.59375 C 204.996094 161.195312 204.757812 161.972656 202.546875 162.933594 C 200.339844 163.890625 196.21875 164.96875 192.695312 165.75 C 189.171875 166.527344 186.304688 167.007812 184.453125 167.066406 C 182.601562 167.128906 181.765625 166.828125 181.707031 166.410156 C 181.648438 165.988281 182.363281 165.570312 185.707031 164.3125 Z M 185.707031 164.3125 " fill-opacity="1" fill-rule="nonzero"/><path fill="#ffffff" d="M 178.066406 169.105469 C 177.648438 169.046875 177.230469 168.867188 176.992188 168.445312 C 176.8125 168.027344 176.8125 167.367188 177.347656 166.886719 C 177.886719 166.347656 178.902344 165.988281 179.5 166.289062 C 180.09375 166.527344 180.335938 167.425781 180.214844 168.027344 C 180.09375 168.625 179.617188 168.925781 179.199219 169.105469 C 178.78125 169.226562 178.421875 169.226562 178.066406 169.105469 Z M 178.066406 169.105469 " fill-opacity="1" fill-rule="nonzero"/><path fill="#ba0606" d="M 279.875 216.398438 L 275.457031 216.398438 C 275.996094 214.300781 276.234375 212.144531 276.234375 209.925781 C 276.234375 198.476562 268.890625 188.707031 258.679688 185.230469 C 273.25 187.628906 282.921875 201.832031 279.875 216.398438 Z M 279.875 216.398438 " fill-opacity="1" fill-rule="nonzero"/><path fill="#ba0606" d="M 149.878906 216.398438 L 145.402344 216.398438 C 145.941406 214.300781 146.238281 212.144531 146.238281 209.925781 C 146.238281 198.476562 138.894531 188.707031 128.683594 185.230469 C 143.253906 187.628906 152.925781 201.832031 149.878906 216.398438 Z M 149.878906 216.398438 " fill-opacity="1" fill-rule="nonzero"/><path stroke-linecap="round" transform="matrix(0.597134, 0, 0, 0.599404, 38.097134, 139.0758)" fill="none" stroke-linejoin="round" d="M 320.49676 17.801499 L 320.49676 54.902143 " stroke="#000000" stroke-width="3.424" stroke-opacity="1" stroke-miterlimit="4"/><path stroke-linecap="round" transform="matrix(0.597134, 0, 0, 0.599404, 38.097134, 139.0758)" fill="none" stroke-linejoin="round" d="M 406.59818 54.902143 C 409.901722 54.902143 411.098847 50.503244 408.102763 48.90009 C 393.102721 40.701844 379.201679 34.999567 367.596762 30.398644 C 353.401345 24.702884 342.699178 20.799268 333.102552 19.000607 C 323.499385 17.201946 315.099885 17.397452 296.802843 21.099045 C 280.298217 24.403107 255.596883 30.600668 214.600256 48.90009 C 211.401381 50.30122 212.402256 55.09765 215.902048 55.09765 C 279.500134 54.902143 343.098219 54.902143 406.59818 54.902143 Z M 406.59818 54.902143 " stroke="#000000" stroke-width="3.424" stroke-opacity="1" stroke-miterlimit="4"/><path stroke-linecap="round" transform="matrix(0.597134, 0, 0, 0.599404, 38.097134, 139.0758)" fill="none" stroke-linejoin="round" d="M 73.398376 65.902651 C 68.099626 67.499288 59.399209 70.497057 52.399626 74.70045 C 45.400042 78.897325 39.8985 84.202072 35.69875 88.900749 C 31.499 93.599425 28.601041 97.802818 27.103 100.702833 C 25.598416 103.498578 25.598416 104.997462 27.999208 106.001063 C 30.301875 107.102417 34.998792 107.799724 40.101292 108.099501 C 45.19725 108.399278 50.901584 108.197254 54.702292 106.30084 C 58.503001 104.397909 60.498209 100.89834 64.397043 94.700779 C 68.302418 88.600972 74.00021 79.900926 77.401877 74.400673 C 80.797002 68.900419 81.699752 66.502204 81.202585 65.40085 C 80.698877 64.299496 78.697127 64.299496 73.398376 65.902651 Z M 73.398376 65.902651 " stroke="#000000" stroke-width="3.424" stroke-opacity="1" stroke-miterlimit="4"/><path stroke-linecap="round" transform="matrix(0.597134, 0, 0, 0.599404, 38.097134, 139.0758)" fill="none" stroke-linejoin="round" d="M 456.301765 89.200526 C 456.301765 90.784129 456.144765 92.348182 455.837307 93.899202 C 455.529848 95.456738 455.071932 96.962139 454.463557 98.421922 C 453.861723 99.881705 453.115973 101.276319 452.23939 102.586214 C 451.356265 103.902625 450.361931 105.121283 449.243306 106.242188 C 448.124681 107.363093 446.907931 108.360177 445.586515 109.239956 C 444.27164 110.119736 442.884806 110.862662 441.419473 111.468732 C 439.960681 112.068286 438.456098 112.530985 436.899181 112.837279 C 435.348806 113.143572 433.785348 113.299978 432.202264 113.299978 C 430.619181 113.299978 429.049181 113.143572 427.498806 112.837279 C 425.948431 112.530985 424.437306 112.068286 422.978514 111.468732 C 421.51318 110.862662 420.126347 110.119736 418.811472 109.239956 C 417.496597 108.360177 416.279847 107.363093 415.161222 106.242188 C 414.042597 105.121283 413.041722 103.902625 412.158597 102.586214 C 411.282013 101.276319 410.542805 99.881705 409.93443 98.421922 C 409.326055 96.962139 408.87468 95.456738 408.56068 93.899202 C 408.253222 92.348182 408.102763 90.784129 408.102763 89.200526 C 408.102763 87.616922 408.253222 86.052869 408.56068 84.495332 C 408.87468 82.944313 409.326055 81.438912 409.93443 79.979129 C 410.542805 78.512829 411.282013 77.124732 412.158597 75.80832 C 413.041722 74.491909 414.042597 73.279768 415.161222 72.158863 C 416.279847 71.037958 417.496597 70.040875 418.811472 69.161095 C 420.126347 68.281315 421.51318 67.538389 422.978514 66.932319 C 424.437306 66.326248 425.948431 65.870066 427.498806 65.563772 C 429.049181 65.257479 430.619181 65.101073 432.202264 65.101073 C 433.785348 65.101073 435.348806 65.257479 436.899181 65.563772 C 438.456098 65.870066 439.960681 66.326248 441.419473 66.932319 C 442.884806 67.538389 444.27164 68.281315 445.586515 69.161095 C 446.907931 70.040875 448.124681 71.037958 449.243306 72.158863 C 450.361931 73.279768 451.356265 74.491909 452.23939 75.80832 C 453.115973 77.124732 453.861723 78.512829 454.463557 79.979129 C 455.071932 81.438912 455.529848 82.944313 455.837307 84.495332 C 456.144765 86.052869 456.301765 87.616922 456.301765 89.200526 Z M 456.301765 89.200526 " stroke="#000000" stroke-width="3.424" stroke-opacity="1" stroke-miterlimit="4"/><path stroke-linecap="round" transform="matrix(0.597134, 0, 0, 0.599404, 38.097134, 139.0758)" fill="none" stroke-linejoin="round" d="M 152.003046 118.200678 C 152.003046 119.152143 151.904921 120.097092 151.721754 121.029007 C 151.538588 121.960922 151.263837 122.866769 150.897504 123.746549 C 150.531171 124.626329 150.086337 125.467008 149.556462 126.255551 C 149.026587 127.050612 148.424754 127.780503 147.750962 128.451743 C 147.077171 129.129499 146.344504 129.729053 145.552962 130.256921 C 144.761421 130.784789 143.930629 131.234454 143.047504 131.5994 C 142.170921 131.957828 141.261629 132.238055 140.32617 132.420527 C 139.397254 132.609517 138.455254 132.700754 137.50017 132.700754 C 136.545087 132.700754 135.603087 132.609517 134.67417 132.420527 C 133.738712 132.238055 132.82942 131.957828 131.952837 131.5994 C 131.069712 131.234454 130.23892 130.784789 129.447378 130.256921 C 128.655837 129.729053 127.92317 129.129499 127.249378 128.451743 C 126.575587 127.780503 125.973753 127.050612 125.443878 126.255551 C 124.914003 125.467008 124.46917 124.626329 124.102837 123.746549 C 123.736503 122.866769 123.461753 121.960922 123.278586 121.029007 C 123.09542 120.097092 122.997295 119.152143 122.997295 118.200678 C 122.997295 117.249212 123.09542 116.304263 123.278586 115.372348 C 123.461753 114.440433 123.736503 113.528069 124.102837 112.648289 C 124.46917 111.768509 124.914003 110.934347 125.443878 110.145804 C 125.973753 109.350744 126.575587 108.620852 127.249378 107.949613 C 127.92317 107.271856 128.655837 106.672303 129.447378 106.144435 C 130.23892 105.616567 131.069712 105.166901 131.952837 104.801956 C 132.82942 104.43701 133.738712 104.163301 134.67417 103.980828 C 135.603087 103.791838 136.545087 103.700602 137.50017 103.700602 C 138.455254 103.700602 139.397254 103.791838 140.32617 103.980828 C 141.261629 104.163301 142.170921 104.43701 143.047504 104.801956 C 143.930629 105.166901 144.761421 105.616567 145.552962 106.144435 C 146.344504 106.672303 147.077171 107.271856 147.750962 107.949613 C 148.424754 108.620852 149.026587 109.350744 149.556462 110.145804 C 150.086337 110.934347 150.531171 111.768509 150.897504 112.648289 C 151.263837 113.528069 151.538588 114.440433 151.721754 115.372348 C 151.904921 116.304263 152.003046 117.249212 152.003046 118.200678 Z M 152.003046 118.200678 " stroke="#000000" stroke-width="3.424" stroke-opacity="1" stroke-miterlimit="4"/><g clip-path="url(#d82d1dc770)"><path stroke-linecap="round" transform="matrix(0.597134, 0, 0, 0.599404, 38.097134, 139.0758)" fill="none" stroke-linejoin="round" d="M 181.002255 118.200678 C 181.002255 119.627876 180.930297 121.048558 180.792922 122.462722 C 180.649005 123.883404 180.439672 125.291052 180.164922 126.685666 C 179.88363 128.086797 179.543463 129.46186 179.124797 130.830407 C 178.712672 132.192436 178.23513 133.528398 177.68563 134.84481 C 177.142672 136.161221 176.534297 137.451565 175.860505 138.702808 C 175.193255 139.960567 174.460588 141.185742 173.669047 142.365299 C 172.877505 143.551372 172.027088 144.691828 171.124338 145.793182 C 170.221588 146.894536 169.266505 147.950272 168.259088 148.960389 C 167.251671 149.96399 166.198463 150.921973 165.092921 151.82782 C 163.993921 152.727151 162.84913 153.574346 161.665088 154.369407 C 160.481046 155.15795 159.264296 155.894358 158.008296 156.565598 C 156.752296 157.236837 155.463588 157.842908 154.148713 158.390327 C 152.827296 158.931228 151.492796 159.413478 150.125587 159.824042 C 148.764921 160.241123 147.384629 160.586518 145.984712 160.866744 C 144.591337 161.140453 143.178337 161.348994 141.765337 161.492365 C 140.345795 161.62922 138.926254 161.700906 137.50017 161.700906 C 136.074087 161.700906 134.654545 161.62922 133.235004 161.492365 C 131.815462 161.348994 130.409003 161.140453 129.015628 160.866744 C 127.615712 160.586518 126.23542 160.241123 124.874753 159.824042 C 123.507545 159.413478 122.166503 158.931228 120.851628 158.390327 C 119.536753 157.842908 118.248045 157.236837 116.992045 156.565598 C 115.736045 155.894358 114.519295 155.15795 113.335253 154.369407 C 112.151211 153.574346 111.006419 152.727151 109.900878 151.82782 C 108.801878 150.921973 107.748669 149.96399 106.741253 148.960389 C 105.733836 147.950272 104.778753 146.894536 103.876002 145.793182 C 102.973252 144.691828 102.122836 143.551372 101.331294 142.365299 C 100.539752 141.185742 99.807086 139.960567 99.133294 138.702808 C 98.466044 137.451565 97.857669 136.161221 97.308169 134.84481 C 96.765211 133.528398 96.287669 132.192436 95.875544 130.830407 C 95.456877 129.46186 95.11671 128.086797 94.835419 126.685666 C 94.560669 125.291052 94.351335 123.883404 94.207419 122.462722 C 94.070044 121.048558 93.998085 119.627876 93.998085 118.200678 C 93.998085 116.773479 94.070044 115.352798 94.207419 113.938633 C 94.351335 112.517951 94.560669 111.110303 94.835419 109.715689 C 95.11671 108.314558 95.456877 106.932978 95.875544 105.570948 C 96.287669 104.208919 96.765211 102.86644 97.308169 101.550028 C 97.857669 100.240134 98.466044 98.94979 99.133294 97.692031 C 99.807086 96.440788 100.539752 95.215613 101.331294 94.02954 C 102.122836 92.849983 102.973252 91.703011 103.876002 90.601656 C 104.778753 89.500302 105.733836 88.451083 106.741253 87.440966 C 107.748669 86.430848 108.801878 85.479382 109.900878 84.573535 C 111.006419 83.667688 112.151211 82.820492 113.335253 82.031949 C 114.519295 81.236888 115.736045 80.506997 116.992045 79.835757 C 118.248045 79.164518 119.536753 78.558447 120.851628 78.011029 C 122.166503 77.46361 123.507545 76.987877 124.874753 76.570796 C 126.23542 76.160232 127.615712 75.814837 129.015628 75.534611 C 130.409003 75.260902 131.815462 75.052361 133.235004 74.90899 C 134.654545 74.772135 136.074087 74.70045 137.50017 74.70045 C 138.926254 74.70045 140.345795 74.772135 141.765337 74.90899 C 143.178337 75.045845 144.591337 75.260902 145.984712 75.534611 C 147.384629 75.814837 148.764921 76.160232 150.125587 76.570796 C 151.492796 76.987877 152.827296 77.46361 154.148713 78.011029 C 155.463588 78.558447 156.752296 79.164518 158.008296 79.835757 C 159.264296 80.506997 160.481046 81.236888 161.665088 82.031949 C 162.84913 82.820492 163.993921 83.667688 165.092921 84.573535 C 166.198463 85.479382 167.251671 86.430848 168.259088 87.440966 C 169.266505 88.451083 170.221588 89.500302 171.124338 90.601656 C 172.027088 91.703011 172.877505 92.849983 173.669047 94.02954 C 174.460588 95.215613 175.193255 96.440788 175.860505 97.692031 C 176.534297 98.94979 177.142672 100.240134 177.68563 101.550028 C 178.23513 102.86644 178.712672 104.208919 179.124797 105.570948 C 179.543463 106.932978 179.88363 108.314558 180.164922 109.715689 C 180.439672 111.110303 180.649005 112.517951 180.792922 113.938633 C 180.930297 115.352798 181.002255 116.773479 181.002255 118.200678 Z M 181.002255 118.200678 " stroke="#000000" stroke-width="3.424" stroke-opacity="1" stroke-miterlimit="4"/></g><g clip-path="url(#9a45ab949a)"><path stroke-linecap="round" transform="matrix(0.597134, 0, 0, 0.599404, 38.097134, 139.0758)" fill="none" stroke-linejoin="round" d="M 398.702388 118.200678 C 398.702388 119.627876 398.63043 121.048558 398.493055 122.462722 C 398.349138 123.883404 398.139805 125.291052 397.865055 126.685666 C 397.583763 128.086797 397.243596 129.46186 396.82493 130.830407 C 396.412805 132.192436 395.935263 133.528398 395.385763 134.84481 C 394.842804 136.161221 394.234429 137.451565 393.560638 138.702808 C 392.893388 139.960567 392.160721 141.185742 391.369179 142.365299 C 390.577638 143.551372 389.727221 144.691828 388.824471 145.793182 C 387.921721 146.894536 386.966638 147.950272 385.959221 148.960389 C 384.951804 149.96399 383.898596 150.921973 382.793054 151.82782 C 381.694054 152.727151 380.549262 153.574346 379.365221 154.369407 C 378.181179 155.15795 376.964429 155.894358 375.708429 156.565598 C 374.452429 157.236837 373.16372 157.842908 371.848845 158.390327 C 370.527429 158.931228 369.192929 159.413478 367.82572 159.824042 C 366.465053 160.241123 365.084762 160.586518 363.684845 160.866744 C 362.29147 161.140453 360.87847 161.348994 359.46547 161.492365 C 358.045928 161.62922 356.626386 161.700906 355.200303 161.700906 C 353.77422 161.700906 352.354678 161.62922 350.935136 161.492365 C 349.515595 161.348994 348.109136 161.140453 346.715761 160.866744 C 345.315844 160.586518 343.935553 160.241123 342.574886 159.824042 C 341.207678 159.413478 339.866636 158.931228 338.551761 158.390327 C 337.236886 157.842908 335.948177 157.236837 334.692177 156.565598 C 333.436177 155.894358 332.219427 155.15795 331.035386 154.369407 C 329.851344 153.574346 328.706552 152.727151 327.60101 151.82782 C 326.50201 150.921973 325.448802 149.96399 324.441385 148.960389 C 323.433969 147.950272 322.478885 146.894536 321.576135 145.793182 C 320.673385 144.691828 319.822968 143.551372 319.031427 142.365299 C 318.239885 141.185742 317.507218 139.960567 316.833427 138.702808 C 316.166177 137.451565 315.557802 136.161221 315.008302 134.84481 C 314.465343 133.528398 313.987802 132.192436 313.575677 130.830407 C 313.15701 129.46186 312.816843 128.086797 312.535552 126.685666 C 312.260802 125.291052 312.051468 123.883404 311.907552 122.462722 C 311.770177 121.048558 311.698218 119.627876 311.698218 118.200678 C 311.698218 116.773479 311.770177 115.352798 311.907552 113.938633 C 312.051468 112.517951 312.260802 111.110303 312.535552 109.715689 C 312.816843 108.314558 313.15701 106.932978 313.575677 105.570948 C 313.987802 104.208919 314.465343 102.86644 315.008302 101.550028 C 315.557802 100.240134 316.166177 98.94979 316.833427 97.692031 C 317.507218 96.440788 318.239885 95.215613 319.031427 94.02954 C 319.822968 92.849983 320.673385 91.703011 321.576135 90.601656 C 322.478885 89.500302 323.433969 88.451083 324.441385 87.440966 C 325.448802 86.430848 326.50201 85.479382 327.60101 84.573535 C 328.706552 83.667688 329.851344 82.820492 331.035386 82.031949 C 332.219427 81.236888 333.436177 80.506997 334.692177 79.835757 C 335.948177 79.164518 337.236886 78.558447 338.551761 78.011029 C 339.866636 77.46361 341.207678 76.987877 342.574886 76.570796 C 343.935553 76.160232 345.315844 75.814837 346.715761 75.534611 C 348.109136 75.260902 349.515595 75.052361 350.935136 74.90899 C 352.354678 74.772135 353.77422 74.70045 355.200303 74.70045 C 356.626386 74.70045 358.045928 74.772135 359.46547 74.90899 C 360.87847 75.045845 362.29147 75.260902 363.684845 75.534611 C 365.084762 75.814837 366.465053 76.160232 367.82572 76.570796 C 369.192929 76.987877 370.527429 77.46361 371.848845 78.011029 C 373.16372 78.558447 374.452429 79.164518 375.708429 79.835757 C 376.964429 80.506997 378.181179 81.236888 379.365221 82.031949 C 380.549262 82.820492 381.694054 83.667688 382.793054 84.573535 C 383.898596 85.479382 384.951804 86.430848 385.959221 87.440966 C 386.966638 88.451083 387.921721 89.500302 388.824471 90.601656 C 389.727221 91.703011 390.577638 92.849983 391.369179 94.02954 C 392.160721 95.215613 392.893388 96.440788 393.560638 97.692031 C 394.234429 98.94979 394.842804 100.240134 395.385763 101.550028 C 395.935263 102.86644 396.412805 104.208919 396.82493 105.570948 C 397.243596 106.932978 397.583763 108.314558 397.865055 109.715689 C 398.139805 111.110303 398.349138 112.517951 398.493055 113.938633 C 398.63043 115.352798 398.702388 116.773479 398.702388 118.200678 Z M 398.702388 118.200678 " stroke="#000000" stroke-width="3.424" stroke-opacity="1" stroke-miterlimit="4"/></g><path stroke-linecap="round" transform="matrix(0.597134, 0, 0, 0.599404, 38.097134, 139.0758)" fill="none" stroke-linejoin="round" d="M 369.703179 118.200678 C 369.703179 119.152143 369.605054 120.097092 369.421887 121.029007 C 369.23872 121.960922 368.957429 122.866769 368.597637 123.746549 C 368.231304 124.626329 367.78647 125.467008 367.256595 126.255551 C 366.72672 127.050612 366.124887 127.780503 365.451095 128.451743 C 364.777303 129.129499 364.044637 129.729053 363.253095 130.256921 C 362.461553 130.784789 361.630762 131.234454 360.747637 131.5994 C 359.871053 131.957828 358.961762 132.238055 358.026303 132.420527 C 357.097386 132.609517 356.148845 132.700754 355.200303 132.700754 C 354.24522 132.700754 353.30322 132.609517 352.374303 132.420527 C 351.438845 132.238055 350.529553 131.957828 349.65297 131.5994 C 348.769844 131.234454 347.939053 130.784789 347.140969 130.256921 C 346.349428 129.729053 345.623303 129.129499 344.949511 128.451743 C 344.275719 127.780503 343.673886 127.050612 343.144011 126.255551 C 342.614136 125.467008 342.169303 124.626329 341.802969 123.746549 C 341.436636 122.866769 341.161886 121.960922 340.978719 121.029007 C 340.795553 120.097092 340.697428 119.152143 340.697428 118.200678 C 340.697428 117.249212 340.795553 116.304263 340.978719 115.372348 C 341.161886 114.440433 341.436636 113.528069 341.802969 112.648289 C 342.169303 111.768509 342.614136 110.934347 343.144011 110.145804 C 343.673886 109.350744 344.275719 108.620852 344.949511 107.949613 C 345.623303 107.271856 346.349428 106.672303 347.140969 106.144435 C 347.939053 105.616567 348.769844 105.166901 349.65297 104.801956 C 350.529553 104.43701 351.438845 104.163301 352.374303 103.980828 C 353.30322 103.791838 354.24522 103.700602 355.200303 103.700602 C 356.148845 103.700602 357.097386 103.791838 358.026303 103.980828 C 358.961762 104.163301 359.871053 104.43701 360.747637 104.801956 C 361.630762 105.166901 362.461553 105.616567 363.253095 106.144435 C 364.044637 106.672303 364.777303 107.271856 365.451095 107.949613 C 366.124887 108.620852 366.72672 109.350744 367.256595 110.145804 C 367.78647 110.934347 368.231304 111.768509 368.597637 112.648289 C 368.957429 113.528069 369.23872 114.440433 369.421887 115.372348 C 369.605054 116.304263 369.703179 117.249212 369.703179 118.200678 Z M 369.703179 118.200678 " stroke="#000000" stroke-width="3.424" stroke-opacity="1" stroke-miterlimit="4"/><path stroke-linecap="round" transform="matrix(0.597134, 0, 0, 0.599404, 38.097134, 139.0758)" fill="none" stroke-linejoin="round" d="M 179.700463 128.999161 C 224.196882 128.999161 268.601717 128.999161 313.098135 128.999161 " stroke="#000000" stroke-width="3.424" stroke-opacity="1" stroke-miterlimit="4"/><g clip-path="url(#6e783b9c36)"><path stroke-linecap="round" transform="matrix(0.597134, 0, 0, 0.599404, 38.097134, 139.0758)" fill="none" stroke-linejoin="round" d="M 397.400596 128.999161 C 420.10018 128.999161 442.799764 128.999161 465.499349 128.999161 C 475.298766 129.201185 480.597516 128.099831 485.202849 126.001393 C 489.801641 123.902955 493.700475 121.100693 496.199391 116.597523 C 498.698308 112.10087 499.699183 106.001063 498.999225 100.298786 C 498.299266 94.603026 495.898475 89.200526 486.897141 81.497564 C 477.902349 73.801119 462.398599 63.602189 446.600473 53.800789 C 430.802347 43.99939 414.598638 34.497767 397.400596 25.797721 C 380.300679 16.999922 362.101762 9.101454 343.601928 5.002331 C 325.200219 0.903209 306.399468 0.499162 286.499717 4.800308 C 266.599967 9.101454 245.503091 18.19903 229.397507 25.400191 C 213.403131 32.497082 202.400048 37.801829 189.702672 39.900267 C 176.998755 41.998705 162.600546 41.099374 145.997796 40.499821 C 129.401587 39.900267 110.698961 39.60049 91.100127 44.201413 C 71.501293 48.802336 50.999709 58.297442 35.69875 69.402219 C 20.397791 80.50048 10.297457 93.097625 5.502416 102.996778 C 0.700832 112.798177 1.001749 119.797315 3.500666 123.798684 C 5.999582 127.897807 10.703041 128.999161 17.198916 128.999161 C 43.202042 128.999161 69.296751 128.999161 95.299877 128.999161 " stroke="#000000" stroke-width="3.424" stroke-opacity="1" stroke-miterlimit="4"/></g></svg>