<svg xmlns="http://www.w3.org/2000/svg" xmlns:xlink="http://www.w3.org/1999/xlink" width="500" zoomAndPan="magnify" viewBox="0 0 375 374.999991" height="500" preserveAspectRatio="xMidYMid meet" version="1.0"><defs><clipPath id="ee02d9832e"><path d="M 49.730469 50.535156 L 267.230469 50.535156 L 267.230469 268.035156 L 49.730469 268.035156 Z M 49.730469 50.535156 " clip-rule="nonzero"/></clipPath><clipPath id="9f626ea706"><path d="M 133.421875 147.609375 L 283.421875 147.609375 L 283.421875 295.359375 L 133.421875 295.359375 Z M 133.421875 147.609375 " clip-rule="nonzero"/></clipPath><clipPath id="63861f120f"><path d="M 133.421875 147.609375 L 283.421875 147.609375 L 283.421875 274 L 133.421875 274 Z M 133.421875 147.609375 " clip-rule="nonzero"/></clipPath></defs><g clip-path="url(#ee02d9832e)"><path fill="#ff914d" d="M 158.527344 268.128906 C 98.507812 268.128906 49.730469 219.355469 49.730469 159.332031 C 49.730469 99.3125 98.507812 50.535156 158.527344 50.535156 C 218.550781 50.535156 267.324219 99.3125 267.324219 159.332031 C 267.324219 219.355469 218.550781 268.128906 158.527344 268.128906 Z M 158.527344 268.128906 " fill-opacity="1" fill-rule="nonzero"/></g><g clip-path="url(#9f626ea706)"><path stroke-linecap="round" transform="matrix(1.269035, 0, 0, 1.272265, 126.443053, 141.015034)" fill="none" stroke-linejoin="miter" d="M 8.051078 11.578614 L 49.87972 114.298996 C 50.098267 114.833231 50.446095 115.263074 50.920126 115.588527 C 51.394157 115.913981 51.917439 116.085918 52.493048 116.10127 C 53.068658 116.116621 53.604251 115.972317 54.093673 115.671426 C 54.583095 115.370535 54.95247 114.959113 55.19872 114.440231 L 67.769783 87.679385 C 67.871361 87.467533 67.994486 87.267963 68.142236 87.086815 C 68.289986 86.902596 68.459283 86.739869 68.647049 86.598635 C 68.834814 86.4574 69.037971 86.340729 69.253439 86.248619 C 69.471986 86.15651 69.693611 86.088963 69.927549 86.052119 C 70.158408 86.015275 70.392346 86.006064 70.626283 86.024486 C 70.863299 86.042908 71.09108 86.088963 71.315783 86.165721 C 71.537408 86.239408 71.749799 86.340729 71.946799 86.466611 C 72.146877 86.592494 72.328486 86.739869 72.488549 86.908736 L 102.549519 118.388653 C 102.691113 118.536028 102.845019 118.664981 103.014316 118.781653 C 103.180534 118.895254 103.359066 118.990434 103.546831 119.067192 C 103.734597 119.14395 103.928519 119.199215 104.128597 119.236059 C 104.328675 119.269832 104.531831 119.285184 104.734988 119.279043 C 104.938144 119.272903 105.138222 119.24834 105.335222 119.199215 C 105.532222 119.15009 105.723066 119.082543 105.904675 118.996575 C 106.089363 118.907536 106.25866 118.800075 106.4218 118.677262 C 106.581863 118.55445 106.729613 118.413215 106.858894 118.2597 L 120.448816 102.2603 C 120.691988 101.977831 120.873598 101.658519 120.996723 101.305433 C 121.116769 100.952347 121.166019 100.59005 121.147551 100.218542 C 121.126004 99.843964 121.039816 99.490878 120.882832 99.150073 C 120.725848 98.812339 120.510379 98.514518 120.239504 98.259683 L 91.419018 70.909337 C 91.249721 70.749681 91.101971 70.571602 90.978846 70.375102 C 90.852643 70.178602 90.751065 69.969821 90.674112 69.748759 C 90.600237 69.527696 90.550987 69.300493 90.52944 69.070219 C 90.507893 68.836876 90.517128 68.606602 90.550987 68.376329 C 90.584846 68.142985 90.646409 67.921923 90.735675 67.70393 C 90.82494 67.489008 90.938831 67.286368 91.074268 67.099079 C 91.212784 66.91179 91.369768 66.739852 91.5483 66.592477 C 91.726831 66.442032 91.920753 66.313079 92.130065 66.208688 L 118.211019 53.27039 C 118.715832 53.012484 119.11291 52.640976 119.399176 52.152796 C 119.688519 51.661546 119.820879 51.133453 119.796254 50.568515 C 119.774707 50.000507 119.599254 49.484695 119.276051 49.021077 C 118.949769 48.55439 118.524988 48.216656 117.998629 47.998663 L 11.769453 7.771426 C 11.230781 7.568785 10.679797 7.528871 10.1165 7.654754 C 9.553203 7.780637 9.069937 8.050825 8.669781 8.462246 C 8.266546 8.873668 8.007984 9.364918 7.897171 9.929856 C 7.783281 10.494793 7.835609 11.044379 8.051078 11.578614 Z M 8.051078 11.578614 " stroke="#000000" stroke-width="4" stroke-opacity="1" stroke-miterlimit="10"/></g><g clip-path="url(#63861f120f)"><path stroke-linecap="round" transform="matrix(1.269035, 0, 0, 1.272265, 126.443053, 141.015034)" fill="none" stroke-linejoin="miter" d="M 45.730407 32.300154 L 72.340799 47.820585 " stroke="#000000" stroke-width="4" stroke-opacity="1" stroke-miterlimit="10"/></g></svg>