<svg xmlns="http://www.w3.org/2000/svg" xmlns:xlink="http://www.w3.org/1999/xlink" width="500" zoomAndPan="magnify" viewBox="0 0 375 374.999991" height="500" preserveAspectRatio="xMidYMid meet" version="1.0"><defs><clipPath id="1b29866a06"><path d="M 40 88.167969 L 335 88.167969 L 335 286.917969 L 40 286.917969 Z M 40 88.167969 " clip-rule="nonzero"/></clipPath></defs><g clip-path="url(#1b29866a06)"><path fill="#ff914d" d="M 325.28125 180.28125 C 312.496094 131.527344 297.765625 99.453125 263.832031 90.234375 C 258.648438 88.835938 253.773438 88.148438 248.917969 88.148438 C 238.679688 88.148438 230.441406 91.234375 222.453125 94.222656 C 215.109375 96.96875 206.902344 99.980469 195.554688 101 L 187.0625 101.25 C 187.0625 101.296875 161.40625 97.535156 152.476562 94.1875 C 144.535156 91.210938 136.3125 88.132812 126.117188 88.132812 C 121.25 88.132812 116.363281 88.816406 111.1875 90.226562 C 77.222656 99.449219 62.496094 131.515625 49.742188 180.277344 C 34.949219 236.753906 39.042969 274.609375 60.957031 284.15625 C 64.523438 285.71875 68.285156 286.507812 72.117188 286.507812 C 91.605469 286.507812 109.527344 266.023438 122.617188 251.046875 L 126.179688 246.917969 C 136.855469 234.433594 159.210938 227.277344 187.507812 227.277344 C 218.28125 227.277344 237.195312 233.335938 248.824219 246.9375 L 252.390625 251.074219 C 265.464844 266.03125 283.375 286.5 302.875 286.5 C 306.734375 286.5 310.480469 285.707031 314.023438 284.15625 C 335.945312 274.613281 340.039062 236.757812 325.28125 180.28125 Z M 140.933594 184.09375 L 126.304688 184.09375 L 126.304688 198.265625 C 126.304688 203.464844 121.730469 207.84375 116.320312 207.84375 C 110.898438 207.84375 106.324219 203.464844 106.324219 198.265625 L 106.324219 184.09375 L 92.582031 184.09375 C 87.394531 184.09375 83.007812 179.515625 83.007812 174.101562 C 83.007812 168.679688 87.390625 164.105469 92.582031 164.105469 L 106.324219 164.105469 L 106.324219 149.921875 C 106.324219 144.730469 110.902344 140.34375 116.320312 140.34375 C 121.730469 140.34375 126.304688 144.730469 126.304688 149.921875 L 126.304688 164.105469 L 140.933594 164.105469 C 146.117188 164.105469 150.511719 168.679688 150.511719 174.101562 C 150.515625 179.523438 146.121094 184.09375 140.933594 184.09375 Z M 244.835938 201.484375 C 236.734375 201.484375 230.148438 194.902344 230.148438 186.800781 C 230.148438 178.703125 236.75 172.121094 244.835938 172.121094 C 252.925781 172.121094 259.503906 178.707031 259.503906 186.800781 C 259.503906 194.902344 252.921875 201.484375 244.835938 201.484375 Z M 272.226562 174.09375 C 264.128906 174.09375 257.550781 167.503906 257.550781 159.40625 C 257.550781 151.316406 264.136719 144.730469 272.226562 144.730469 C 280.316406 144.730469 286.910156 151.316406 286.914062 159.40625 C 286.914062 167.507812 280.316406 174.09375 272.226562 174.09375 Z M 272.226562 174.09375 " fill-opacity="1" fill-rule="nonzero"/></g></svg>